<svg xmlns="http://www.w3.org/2000/svg" width="56.693" height="56.693" fill="#fff"><path d="M43.9 28.2H12.78c-4.948 0-8.96 4.016-8.96 8.962v7.2a8.96 8.96 0 0 0 8.96 8.96H43.9c4.947 0 8.96-4.014 8.96-8.96v-7.2c0-4.946-4.012-8.962-8.96-8.962zm-24.6 5.605h-2.895v14.38H13.63v-14.38h-2.9V31.37h8.582v2.445zm8.175 14.38h-2.48v-1.36c-.46.503-.936.887-1.432 1.146-.496.27-.975.396-1.44.396-.576 0-1.004-.183-1.297-.555s-.435-.92-.435-1.664V35.782h2.48v9.522c0 .294.055.505.154.636.107.136.277.197.5.197.18 0 .412-.086.7-.26a3.35 3.35 0 0 0 .77-.668v-9.43h2.48v12.416zm9.004-2.563c0 .877-.195 1.552-.584 2.02s-.953.7-1.686.7c-.488 0-.922-.088-1.3-.27a3.23 3.23 0 0 1-1.06-.84v.95h-2.5V31.37h2.5v5.42c.336-.375.7-.666 1.062-.86a2.45 2.45 0 0 1 1.146-.295c.785 0 1.383.263 1.797.8s.623 1.304.623 2.32v6.9h.003zm8.603-3.345h-4.746v2.34c0 .652.08 1.106.242 1.36s.444.378.842.378c.412 0 .696-.107.862-.32.16-.216.246-.687.246-1.416v-.565h2.554v.638c0 1.27-.3 2.23-.937 2.878-.617.64-1.547.96-2.783.96-1.112 0-2-.34-2.627-1.02s-.96-1.62-.96-2.814V39.12c0-1.073.354-1.956 1.058-2.633s1.604-1.016 2.715-1.016c1.137 0 2 .313 2.62.94s.914 1.53.914 2.706v3.164zm-3.636-4.63c-.396 0-.678.1-.85.344-.176.218-.258.6-.258 1.1v1.256h2.192V39.1c0-.52-.088-.895-.262-1.1-.166-.232-.445-.344-.822-.344zm-8.556-.042c-.176 0-.354.04-.525.12s-.344.2-.512.38v7.732c.2.2.396.354.588.442a1.46 1.46 0 0 0 .6.133c.306 0 .527-.088.67-.267s.214-.457.214-.854v-6.4c0-.422-.085-.737-.26-.955-.182-.212-.44-.32-.774-.32zM16.858 23.898h3.144v-7.7l3.66-10.848h-3.196l-1.946 7.4h-.198l-2.043-7.4h-3.167l3.745 11.194zm11.065.345c1.27 0 2.266-.333 2.992-1s1.082-1.582 1.082-2.752v-7.064c0-1.04-.37-1.897-1.104-2.56-.74-.66-1.688-1-2.845-1-1.27 0-2.28.314-3.033.94s-1.127 1.468-1.127 2.53v7.088c0 1.163.367 2.083 1.1 2.773s1.713 1.032 2.934 1.032zm-1.158-10.997a.93.93 0 0 1 .316-.725c.217-.184.492-.273.834-.273.37 0 .668.1.896.273s.34.428.34.725v7.45c0 .365-.1.655-.336.864s-.523.313-.9.313c-.37 0-.654-.1-.854-.3-.197-.205-.297-.493-.297-.868l.001-7.45zm9.45 10.852c.525 0 1.064-.15 1.62-.438s1.098-.72 1.6-1.276V23.9h2.793V10.224h-2.793v10.38a3.89 3.89 0 0 1-.859.735c-.316.192-.576.288-.78.288-.262 0-.455-.072-.568-.22s-.18-.377-.18-.698V10.224h-2.8v11.43c0 .814.164 1.424.488 1.828.33.4.812.617 1.46.617z"/></svg>